<?xml version="1.0" encoding="utf-8"?>
<!-- Generator: Adobe Illustrator 25.3.1, SVG Export Plug-In . SVG Version: 6.00 Build 0)  -->
<svg version="1.1" id="Layer_1" xmlns="http://www.w3.org/2000/svg" xmlns:xlink="http://www.w3.org/1999/xlink" x="0px" y="0px"
	 viewBox="0 0 64 64" style="enable-background:new 0 0 64 64;" xml:space="preserve">
<style type="text/css">
	.st0{fill:#FFFFFF;}
	.st1{fill:#ACADFF;}
</style>
<g>
	<path class="st0" d="M32,25.5c0.8,0,7.7-0.1,7.7-2.2v-2.2c0-2.1-6.9-2.2-7.7-2.2c-0.8,0-7.7,0.1-7.7,2.2v2.2
		C24.3,25.4,31.2,25.5,32,25.5z M25.4,23.3v-0.9c0.2,0.1,0.3,0.2,0.5,0.2v1C25.7,23.5,25.5,23.4,25.4,23.3z M30.9,23.3v1.1
		c-0.6,0-1.1-0.1-1.6-0.1v-1.1C29.8,23.3,30.4,23.3,30.9,23.3z M28.1,24.1c-0.4-0.1-0.8-0.1-1.1-0.2v-1c0.3,0.1,0.7,0.1,1.1,0.2
		V24.1z M32,24.4v-1.1c0.6,0,4.6-0.1,6.6-0.9v0.9C38.3,23.7,35.9,24.4,32,24.4z M32.7,20c0.1,0,0.2,0,0.2,0c0.2,0,0.3,0,0.4,0
		c0.1,0,0.2,0,0.3,0s0.3,0,0.4,0c0.1,0,0.2,0,0.3,0s0.2,0,0.3,0c0.1,0,0.2,0,0.3,0s0.2,0,0.3,0.1c0.1,0,0.2,0,0.2,0.1
		c0.1,0,0.2,0,0.3,0.1c0.1,0,0.2,0,0.2,0.1c0.1,0,0.2,0,0.3,0.1c0.1,0,0.2,0,0.2,0.1c0.1,0,0.2,0.1,0.2,0.1s0.1,0.1,0.2,0.1
		c0.1,0,0.2,0.1,0.2,0.1s0.1,0.1,0.2,0.1s0.1,0.1,0.2,0.1s0.1,0.1,0.2,0.1c0.1,0,0.1,0.1,0.2,0.1c0.1,0,0.1,0.1,0.1,0.1
		c0.1,0,0.1,0.1,0.1,0.1c0.1,0,0.1,0.1,0.1,0.1s0.1,0.1,0.1,0.1s0.1,0.1,0.1,0.1c0.1,0,0.1,0.1,0.1,0.1l0.1,0.1l0.1,0.1l0.1,0.1l0,0
		c-0.4,0.4-2.7,1.1-6.5,1.1c-3.8,0-6.1-0.7-6.5-1.1l0,0c0,0,0.1,0,0.1-0.1l0.1-0.1c0,0,0.1,0,0.1-0.1c0,0,0.1-0.1,0.1-0.1
		s0.1-0.1,0.1-0.1s0.1-0.1,0.1-0.1s0.1-0.1,0.1-0.1c0.1,0,0.1-0.1,0.2-0.1s0.1-0.1,0.1-0.1c0.1,0,0.1-0.1,0.2-0.1
		c0.1,0,0.1-0.1,0.2-0.1c-0.1-0.1,0.1-0.1,0.1-0.1s0.1-0.1,0.2-0.1c0.1,0,0.1-0.1,0.2-0.1c0.1,0,0.1-0.1,0.2-0.1
		c0.1,0,0.2-0.1,0.2-0.1s0.2,0,0.2-0.1c0.1,0,0.2,0,0.3-0.1c0.1,0,0.2,0,0.2-0.1c0.1,0,0.2,0,0.3-0.1c0.1,0,0.2,0,0.2-0.1
		c0.1,0,0.2,0,0.3-0.1c0.1,0,0.2,0,0.3,0c0.1,0,0.2,0,0.3,0c0.1,0,0.2,0,0.3,0c0.1,0,0.2,0,0.4,0c0.1,0,0.2,0,0.3,0
		c0.2,0,0.3,0,0.4,0c0.1,0,0.2,0,0.2,0c0.2,0,0.4,0,0.7,0C32.4,20,32.5,20,32.7,20z"/>
	<path class="st1" d="M27.9,33c2,0,4.3-0.4,4.8-0.5c0.8-0.2,7.5-1.5,7.1-3.6l-0.4-2.1c-0.4-2.1-7.2-0.8-7.9-0.7
		c-1.2,0.2-2.3,0.5-3.3,0.9c-0.6,0.2-1.1,0.4-1.6,0.6c-1.6,0.7-2.3,1.4-2.1,2.1l0.4,2.1C24.9,32.8,26.3,33,27.9,33z M25.6,30.7
		c0.2,0.1,0.4,0.1,0.6,0.1l0.2,1c-0.3-0.1-0.5-0.1-0.6-0.2L25.6,30.7z M25.4,29.4L25.4,29.4l0.1-0.1l0.1-0.1l0.1-0.1
		c0.1,0,0.1-0.1,0.1-0.1c0.1,0,0.1-0.1,0.1-0.1S25.9,29,26,29S26,29,26.1,29s0.1-0.1,0.2-0.1c0.1,0,0.1-0.1,0.2-0.1s0.1-0.1,0.2-0.1
		c0.1,0,0.1-0.1,0.2-0.1s0.1-0.1,0.2-0.1c0.1,0,0.1-0.1,0.2-0.1c0.1-0.1,0.2-0.1,0.2-0.1c0.1-0.1,0.1-0.1,0.2-0.1
		c0.1-0.1,0.2-0.1,0.2-0.1c0.1-0.1,0.2-0.1,0.2-0.1c0.1-0.1,0.2-0.1,0.2-0.1c0.1-0.1,0.2-0.1,0.3-0.1c0.1,0,0.2-0.1,0.3-0.1
		c0.1-0.1,0.2-0.1,0.3-0.1c0.1,0,0.2-0.1,0.3-0.1c0.1-0.1,0.2-0.1,0.3-0.1c0.1,0,0.2-0.1,0.3-0.1c0.1-0.1,0.2-0.1,0.3-0.1
		c0.1,0,0.2-0.1,0.2-0.1c0.1-0.1,0.3-0.1,0.4-0.1h0.1c0.2-0.1,0.4-0.1,0.6-0.1c0.2-0.1,0.5-0.1,0.7-0.1c0.1,0,0.1,0,0.2,0
		c0.2-0.1,0.3-0.1,0.5-0.1c0.1,0,0.1,0,0.2-0.1c0.2,0,0.3-0.1,0.4-0.1c0.1,0,0.2,0,0.2,0c0.1,0,0.3-0.1,0.4-0.1c0.1,0,0.1,0,0.2,0
		s0.2,0,0.4-0.1c0.1,0,0.1,0,0.2,0s0.2,0,0.3,0c0.1,0,0.1,0,0.2,0c0.1,0,0.2,0,0.3,0s0.1,0,0.2,0c0.1,0,0.2,0,0.3,0
		c0.1,0,0.1,0,0.2,0s0.2,0,0.2,0c0.1,0,0.1,0,0.2,0c0.1,0,0.2,0,0.2,0s0.1,0,0.2,0s0.1,0,0.2,0s0.1,0,0.1,0c0.1,0,0.1,0,0.2,0
		c0.1,0,0.1,0,0.1,0c0.1,0,0.1,0,0.1,0c0.1,0,0.1,0,0.1,0s0.1,0,0.1,0.1h0.1c0,0,0.1,0,0.1,0.1c0,0,0.1,0,0.1,0.1c0,0,0,0,0.1,0
		c-0.3,0.5-2.5,1.6-6.2,2.4c-3.7,0.7-6.1,0.5-6.6,0.2C25.4,29.5,25.4,29.5,25.4,29.4C25.4,29.5,25.4,29.4,25.4,29.4z M31.1,30.6
		l0.2,1.1c-0.6,0.1-1.1,0.2-1.6,0.2l-0.2-1.1C30.1,30.7,30.7,30.6,31.1,30.6z M27.5,31.9l-0.2-1c0.1,0,0.1,0,0.2,0
		c0.3,0,0.7,0,0.9-0.1l0.2,1C28.2,31.9,27.8,31.9,27.5,31.9z M32.4,31.5L32.4,31.5L32.4,31.5l-0.2-1.1c0.6-0.1,4.5-0.9,6.2-2.2
		l0.2,0.9C38.4,29.5,36.2,30.7,32.4,31.5z"/>
	<path class="st0" d="M33.6,36.9c-1.7-1-3.3-1.7-4.7-2.2c-1.6-0.5-2.6-0.4-3,0.2l-1.1,1.9c-1.1,1.9,4.9,5.4,5.5,5.7
		c1.7,1,3.3,1.7,4.7,2.2c0.7,0.2,1.3,0.3,1.8,0.3c0.6,0,1-0.2,1.2-0.5l1.1-1.9C40.2,40.7,34.3,37.2,33.6,36.9z M33.7,38.2
		c0.1,0.1,0.1,0.1,0.2,0.1c0.1,0.1,0.3,0.2,0.4,0.2c0.1,0.1,0.2,0.1,0.2,0.2c0.1,0.1,0.2,0.1,0.3,0.2c0.1,0.1,0.2,0.1,0.2,0.2
		c0.1,0.1,0.2,0.1,0.3,0.2c0.1,0.1,0.1,0.1,0.2,0.2s0.2,0.1,0.3,0.2c0.1,0.1,0.1,0.1,0.2,0.2s0.2,0.1,0.2,0.2
		c0.1,0.1,0.1,0.1,0.2,0.1c0.1,0.1,0.2,0.1,0.2,0.2c0.1,0.1,0.1,0.1,0.2,0.1c0.1,0.1,0.1,0.1,0.2,0.2s0.1,0.1,0.1,0.1
		c0.1,0.1,0.1,0.1,0.2,0.2s0.1,0.1,0.1,0.1c0.1,0.1,0.1,0.1,0.2,0.2c0.1,0.1,0.1,0.1,0.1,0.1c0.1,0.1,0.1,0.1,0.1,0.2
		c0.1,0.1,0.1,0.1,0.1,0.1c0.1,0.1,0.1,0.1,0.1,0.1c0,0.1,0.1,0.1,0.1,0.1c0.1,0.1,0.1,0.1,0.1,0.1l0.1,0.1c0,0.1,0.1,0.1,0.1,0.1
		c0,0,0,0.1,0.1,0.1c0,0.1,0.1,0.1,0.1,0.1v0.1c0,0,0,0,0,0.1c-0.5,0.2-2.9-0.4-6.2-2.4s-5-3.7-5.1-4.2c0,0,0,0,0.1,0h0.1
		c0.1,0,0.1,0,0.1,0c0,0,0,0,0.1,0c0.1,0,0.1,0,0.2,0l0,0c0.9,0.1,3.1,0.8,5.8,2.4l0,0C33.3,38,33.5,38.1,33.7,38.2z M27.4,37.8
		c0.3,0.2,0.5,0.5,0.9,0.7l-0.5,0.9c-0.3-0.3-0.6-0.5-0.8-0.7L27.4,37.8z M29.1,39.2c0.4,0.3,0.9,0.6,1.4,0.9L30,41
		c-0.5-0.3-0.9-0.6-1.4-0.9L29.1,39.2z M26.2,36.5c0.1,0.2,0.2,0.3,0.4,0.4l-0.5,0.9c-0.2-0.3-0.3-0.4-0.3-0.5L26.2,36.5z
		 M30.9,41.6C30.9,41.6,30.8,41.6,30.9,41.6L30.9,41.6l0.5-0.9c1.7,1,3.3,1.7,4.7,2.1c0.5,0.2,1,0.3,1.4,0.3l-0.4,0.8
		C36.7,44.1,34.3,43.5,30.9,41.6z"/>
</g>
</svg>
