<svg width="257" height="170" viewBox="0 0 257 170" fill="none" xmlns="http://www.w3.org/2000/svg">
<g clip-path="url(#clip0)">
<g opacity="0.6">
<path opacity="0.6" d="M104.146 51.4072C103.673 51.732 103.146 51.9691 102.59 52.1075C98.0457 53.4513 92.9131 54.9774 87.8452 54.0868C86.0894 53.7292 84.3661 53.2269 82.6926 52.5851C81.7209 52.2411 80.7169 51.8848 79.713 51.5974C77.7294 51.0226 75.1087 50.6583 72.3348 50.2738C63.2793 49.023 52.0104 47.4403 51.7725 37.2763C51.7161 34.8192 52.4619 32.8237 53.986 31.3017C58.175 27.1729 67.3998 27.5575 74.1451 27.8368C75.9432 27.9137 77.4956 27.9785 78.7616 27.9501C83.4868 27.857 88.063 27.9258 92.0666 29.8121C99.473 33.3054 102.815 42.1256 104.682 48.4321C104.904 49.185 105.085 49.9783 104.747 50.6948C104.607 50.978 104.401 51.2226 104.146 51.4072ZM55.0947 31.1317C54.8549 31.3195 54.6248 31.5194 54.4053 31.7308C53.0022 33.1151 52.3168 34.969 52.3894 37.2642C52.6111 46.9344 63.6019 48.4563 72.4315 49.6788C75.2296 50.0835 77.8705 50.4317 79.8985 51.0186C80.9145 51.3141 81.9144 51.6703 82.9062 52.0184C84.5506 52.6465 86.2427 53.1406 87.9661 53.4959C92.8809 54.3581 97.957 52.8563 102.436 51.5286C103.17 51.3101 103.912 51.0469 104.198 50.4519C104.452 49.9297 104.287 49.2618 104.101 48.6223C102.263 42.4049 98.9932 33.7466 91.8044 30.3545C87.9298 28.5289 83.4303 28.4602 78.7776 28.5533C77.4915 28.5775 75.9312 28.5128 74.125 28.4399C67.8394 28.1687 59.3805 27.8165 55.0947 31.1236V31.1317Z" fill="white"/>
<path opacity="0.6" d="M139.695 71.5451C138.76 72.1615 137.767 72.6848 136.731 73.1075L136.505 72.5489C137.506 72.1405 138.465 71.6348 139.368 71.0391L139.695 71.5451ZM142.299 69.4119L141.86 69.0071C142.395 68.4713 142.783 67.8064 142.988 67.0763C143.058 66.8116 143.099 66.5402 143.109 66.2667L143.706 66.291C143.696 66.6125 143.648 66.9317 143.565 67.2422C143.327 68.0626 142.886 68.809 142.283 69.4119H142.299ZM133.558 74.1114L133.155 74.2247C132.224 74.4878 131.296 74.7469 130.381 75.0343L130.212 74.4595C131.131 74.1883 132.058 73.9292 132.99 73.6499L133.393 73.5407L133.558 74.1114ZM127.248 75.9895C126.099 76.37 125.095 76.7465 124.18 77.127L123.95 76.5725C124.878 76.1677 125.894 75.8074 127.063 75.4188L127.248 75.9895ZM143.081 62.9273L142.517 63.1215C142.172 62.0987 141.704 61.1216 141.126 60.2112L141.63 59.8873C142.23 60.8379 142.712 61.8588 143.065 62.9273H143.081ZM121.257 78.5599C121.015 78.7016 120.781 78.8433 120.555 78.993C120.012 79.3631 119.493 79.7687 119.003 80.2074L118.673 80.4988L118.269 80.0414L118.596 79.754C119.105 79.2911 119.644 78.8625 120.209 78.4709C120.447 78.317 120.689 78.1713 120.934 78.0256L121.257 78.5599ZM115.746 82.2474L115.5 82.3082C114.45 82.5147 113.368 82.4704 112.339 82.1787L112.484 81.5958C113.424 81.8636 114.414 81.9066 115.375 81.7213L115.592 81.6686L115.746 82.2474ZM109.214 80.9603C108.573 80.6445 107.932 80.2964 107.384 79.9969C107.021 79.7985 106.658 79.5921 106.291 79.4059L106.573 78.8756L107.67 79.4666C108.238 79.7783 108.847 80.1103 109.476 80.4219L109.214 80.9603ZM139.114 57.6651C138.832 57.3575 138.541 57.0499 138.247 56.7382C137.795 56.2605 137.332 55.7707 136.864 55.2405L137.312 54.8357C137.775 55.3579 138.235 55.8476 138.678 56.3172C138.977 56.6329 139.271 56.9446 139.553 57.2522L139.114 57.6651ZM103.364 77.9042C102.412 77.4427 101.408 76.9813 100.376 76.536L100.614 75.9855C101.654 76.4308 102.666 76.8963 103.622 77.3618L103.364 77.9042ZM135.308 52.2532L134.812 52.5892C134.167 51.6298 133.57 50.6219 133.07 49.7557L133.59 49.4521C134.05 50.3224 134.659 51.3222 135.292 52.2653L135.308 52.2532ZM97.3322 75.2974C96.5258 74.9817 95.6711 74.6659 94.8042 74.3583L94.2479 74.1599L94.4455 73.5933L95.0058 73.7916C95.8767 74.1033 96.7355 74.419 97.5499 74.7347L97.3322 75.2974ZM131.933 46.5903L131.417 46.8979C130.744 45.7645 130.183 44.874 129.647 44.1373L130.135 43.7892C130.663 44.5624 131.228 45.4529 131.917 46.6024L131.933 46.5903ZM91.1353 73.0954L90.1798 72.7756L88.0067 72.0429L88.2002 71.4722L90.3692 72.2049L91.3248 72.5246L91.1353 73.0954ZM127.631 41.5467C126.922 40.6765 126.204 39.8345 125.499 39.0411L125.946 38.6363C126.66 39.4459 127.381 40.2838 128.095 41.1622L127.631 41.5467ZM84.8941 70.95C83.8015 70.5453 82.8217 70.1769 81.8944 69.8004L81.8057 69.764L82.0315 69.2054L82.1202 69.2419C83.0394 69.6183 84.0152 69.9907 85.0997 70.3874L84.8941 70.95ZM123.253 36.6448C122.471 35.8353 121.672 35.0905 120.878 34.3781L121.281 33.9287C122.088 34.6492 122.894 35.4183 123.7 36.2198L123.253 36.6448ZM78.7737 68.4363C77.7577 67.9668 76.7579 67.481 75.7862 67.0277L76.0442 66.4812C76.9917 66.9386 78.0118 67.4244 79.0238 67.8899L78.7737 68.4363ZM118.366 32.2651C117.963 31.9494 117.56 31.6377 117.157 31.3382C116.754 31.0386 116.213 30.6581 115.737 30.3343L116.072 29.8364C116.556 30.1643 117.04 30.5043 117.511 30.8524C117.983 31.2005 118.342 31.4717 118.753 31.7915L118.366 32.2651ZM72.8067 65.6029C71.6536 65.0604 70.7061 64.6233 69.8151 64.2347L70.053 63.6842C70.9521 64.089 71.9036 64.514 73.0607 65.0605L72.8067 65.6029ZM112.935 28.5978C111.996 28.0554 111.02 27.5413 110.04 27.0637L110.299 26.5213C111.294 27.003 112.278 27.5251 113.234 28.0756L112.935 28.5978ZM66.7791 63.0042C66.1542 62.7613 65.5293 62.5265 64.9043 62.2918L63.6948 61.8344L63.9085 61.2717L65.118 61.7291C65.743 61.9639 66.3719 62.1987 66.9968 62.4415L66.7791 63.0042ZM107.041 25.7643C106.045 25.3595 105.025 24.9871 103.965 24.6431L104.15 24.0683C105.206 24.4164 106.255 24.8009 107.267 25.2057L107.041 25.7643ZM60.6225 60.6038C59.5017 60.1221 58.522 59.6486 57.6309 59.1588L57.9172 58.6325C58.7921 59.1102 59.7557 59.5757 60.8604 60.0533L60.6225 60.6038ZM100.82 23.7161C99.7796 23.4449 98.703 23.194 97.6225 22.9754L97.7435 22.3885C98.832 22.607 99.9206 22.858 100.969 23.1332L100.82 23.7161ZM54.8006 57.402C53.9257 56.7908 53.0628 56.127 52.1638 55.3781L52.5669 54.9167C53.4539 55.6574 54.3007 56.3091 55.1635 56.9122L54.8006 57.402ZM94.393 22.4127C93.3649 22.2589 92.2683 22.1253 91.1353 22.0079L91.1958 21.4089C92.3368 21.5222 93.4456 21.6598 94.4818 21.8137L94.393 22.4127ZM49.6883 53.1761L48.9746 52.488C48.3819 51.9091 47.8457 51.3708 47.3417 50.8364L47.7732 50.4317C48.2771 50.9619 48.8053 51.4962 49.3859 52.0508L50.0914 52.7308L49.6883 53.1761ZM87.8615 21.7691C86.8051 21.7003 85.7005 21.6517 84.5756 21.6153V21.0122C85.7085 21.0486 86.8172 21.1013 87.8776 21.166L87.8615 21.7691ZM81.2896 21.5505C80.3703 21.5505 79.4148 21.5505 78.4673 21.5505H78.0158V20.9474H78.4714C79.435 20.9474 80.3946 20.9474 81.3178 20.9474L81.2896 21.5505ZM45.1404 48.343C44.9307 48.084 44.7372 47.8208 44.5194 47.5577C44.0356 46.9222 43.5801 46.2827 43.1688 45.6512L43.6728 45.3233C44.076 45.9386 44.5195 46.57 44.9953 47.1894C45.1928 47.4484 45.3984 47.7075 45.604 47.9625L45.1404 48.343ZM74.7057 21.6275C73.5768 21.6639 72.472 21.7044 71.4197 21.7529L71.3916 21.1539C72.4479 21.1012 73.5566 21.0607 74.6896 21.0284L74.7057 21.6275ZM42.0802 42.4737L41.54 42.7327C41.0622 41.7204 40.6658 40.6714 40.3546 39.5957L40.9312 39.4297C41.2313 40.4632 41.6114 41.4714 42.0682 42.4453L42.0802 42.4737ZM68.1338 21.9432C67.013 22.0201 65.9122 22.1091 64.8559 22.2103L64.7995 21.6113C65.8599 21.5101 66.9686 21.421 68.0935 21.3441L68.1338 21.9432ZM61.5902 22.5706C60.4855 22.7082 59.3888 22.8661 58.3405 23.0361L58.2438 22.441C59.3001 22.271 60.4008 22.1132 61.5176 21.9715L61.5902 22.5706ZM40.3909 36.8836L39.7982 36.9686C39.633 35.8526 39.5992 34.7209 39.6974 33.5968L40.2941 33.6535C40.2008 34.7205 40.2292 35.7948 40.3788 36.8553L40.3909 36.8836ZM55.111 23.6271C54.0103 23.8537 52.9379 24.1047 51.9138 24.3678L51.7646 23.7849C52.7968 23.5178 53.8813 23.2668 54.9901 23.0402L55.111 23.6271ZM48.765 25.2786C48.0876 25.4971 47.4143 25.7279 46.7733 25.9667C46.3701 26.1124 46.0234 26.2541 45.6928 26.3958L45.4549 25.8453C45.7976 25.6955 46.1604 25.5538 46.5636 25.4C47.2168 25.1612 47.8941 24.9264 48.5795 24.7038L48.765 25.2786ZM41.0682 30.5407L40.5199 30.2979C40.8418 29.5586 41.2786 28.8755 41.8141 28.2739C42.0487 28.0183 42.2978 27.7764 42.56 27.5494L42.9632 28.0108C42.7186 28.2189 42.487 28.4419 42.2698 28.6787C41.7712 29.2262 41.3616 29.8491 41.0562 30.5246L41.0682 30.5407Z" fill="white"/>
<path opacity="0.6" d="M176.723 91.3834C175.134 92.6086 173.34 93.5382 171.425 94.1278C164.208 96.3299 156.91 99.0499 152.524 104.004C151.851 104.792 151.224 105.618 150.645 106.478C149.262 108.445 147.823 110.477 145.403 111.376C141.372 112.877 136.937 110.517 132.764 107.967C130.828 106.789 128.881 105.66 126.97 104.616C122.551 102.194 118.003 100.017 113.346 98.0947C111.089 97.1556 108.754 96.2448 106.492 95.3665C102.138 93.6664 97.6225 91.9137 93.3568 89.821C90.1112 88.2261 86.9301 86.4005 83.8498 84.6316C80.1042 82.4823 76.2296 80.26 72.222 78.4426C70.2625 77.5602 68.2225 76.7465 66.2469 75.9653C62.7312 74.5648 59.0904 73.1318 55.7642 71.201C50.6035 68.2178 46.241 64.1295 42.56 60.531C36.0889 54.2043 29.0292 46.6227 27.2108 36.6934L27.5052 36.6368L27.2108 36.6934C26.2311 31.322 27.3156 26.6508 30.1943 23.87C32.3272 21.8137 35.206 20.9191 37.738 20.2269C51.0429 16.6608 66.767 14.7017 85.7487 14.2402C92.8367 14.0783 102.045 14.1147 110.419 15.8877C121.825 18.3164 132.55 23.7202 142.291 32.002C147.98 36.8189 153.515 42.7247 159.712 50.5936C161.286 52.7112 162.718 54.9317 163.998 57.2401C165.821 60.3529 167.703 63.5709 169.985 65.8417C171.254 67.0721 172.601 68.2187 174.017 69.2743C177.17 71.703 179.896 73.8119 181.399 79.1995C181.861 80.708 181.985 82.3004 181.762 83.8626C181.436 85.5493 180.694 87.1273 179.605 88.4528C178.772 89.5481 177.803 90.5328 176.723 91.3834V91.3834ZM154.951 100.92C159.386 97.4956 165.333 95.3503 171.227 93.553C174.366 92.5938 177.134 90.6889 179.158 88.0966C180.195 86.858 180.905 85.3767 181.222 83.7897C181.427 82.3149 181.307 80.8131 180.871 79.3898C179.42 74.1924 176.771 72.1482 173.699 69.7762C172.257 68.7069 170.885 67.544 169.594 66.2951C167.26 63.9716 165.357 60.7212 163.514 57.5761C162.248 55.2906 160.833 53.0919 159.277 50.9943C153.104 43.1578 147.585 37.2804 141.94 32.4878C132.264 24.2748 121.64 18.8952 110.335 16.503C102.017 14.7422 92.8528 14.7057 85.7972 14.8838C66.8476 15.3412 51.2042 17.3125 37.9274 20.8503C35.468 21.5101 32.6861 22.3763 30.65 24.3314C27.9567 26.9301 26.9044 31.5203 27.8277 36.6125C29.6098 46.3677 36.5969 53.8643 43.0034 60.1262C46.6563 63.7005 50.9864 67.7604 56.0866 70.7072C59.3645 72.6056 62.9811 74.0426 66.4807 75.431C68.4603 76.2405 70.5125 77.0501 72.4841 77.9244C76.5159 79.75 80.4026 81.9722 84.1764 84.1378C87.2446 85.9027 90.4216 87.7242 93.6471 89.3069C97.9087 91.3875 102.396 93.1402 106.738 94.8322C108.996 95.7146 111.331 96.6253 113.592 97.5685C118.268 99.498 122.835 101.683 127.272 104.114C129.192 105.166 131.151 106.3 133.09 107.482C137.142 109.955 141.416 112.25 145.214 110.841C147.464 110.007 148.774 108.137 150.161 106.162C150.754 105.283 151.396 104.438 152.084 103.632C152.96 102.64 153.927 101.732 154.971 100.92H154.951Z" fill="white"/>
<path opacity="0.6" d="M213.609 112.371C211.839 113.736 209.844 114.777 207.714 115.448C199.881 117.921 190.192 121.766 184.777 129.615C184.04 130.688 183.358 131.89 182.697 133.052C180.846 136.314 178.935 139.686 175.311 141.289C169.469 143.879 163.038 140.293 157.47 136.731C154.898 135.084 152.277 133.493 149.676 131.991C143.727 128.563 137.599 125.455 131.32 122.681C128.247 121.313 125.082 119.993 122.018 118.722C116.112 116.261 110.003 113.723 104.226 110.671C99.9561 108.408 95.7872 105.814 91.7594 103.324C86.6269 100.143 81.317 96.8479 75.7934 94.233C72.9953 92.9054 70.0561 91.7153 67.2177 90.5616C62.5811 88.6794 57.7873 86.7324 53.3845 84.1297C46.7522 80.2154 41.0835 74.8845 35.3825 69.3066C25.8553 59.9966 16.3362 49.8083 13.655 36.7622C12.1632 29.3992 13.7236 22.7932 17.832 19.0854C20.7752 16.4179 24.7143 15.3816 28.4962 14.5478C48.0142 10.249 69.6448 7.71106 92.7915 7.00269C103.492 6.67887 114.902 6.73957 125.852 9.3666C140.331 12.8356 153.902 20.49 167.34 32.771C174.456 39.2475 181.451 46.9384 190.027 57.6489C192.006 60.1221 193.797 63.1499 195.53 66.0805C198.006 70.274 200.57 74.6093 203.731 77.4387C205.55 79.0091 207.491 80.4304 209.537 81.6889C213.839 84.4819 217.899 87.121 219.963 94.6135C220.588 96.7323 220.751 98.9615 220.44 101.149C220.13 103.337 219.354 105.432 218.165 107.291C216.965 109.248 215.422 110.969 213.609 112.371V112.371ZM189.261 121.969C194.724 117.751 201.38 115.241 207.085 113.44C210.957 112.223 214.261 109.644 216.391 106.178C217.428 104.564 218.105 102.744 218.375 100.843C218.645 98.9419 218.502 97.0045 217.955 95.164C216.105 88.4446 212.714 86.2588 208.408 83.4456C206.275 82.128 204.253 80.639 202.36 78.993C198.953 75.9491 196.312 71.4681 193.748 67.141C191.978 64.1416 190.305 61.3081 188.418 58.9523C179.915 48.3308 172.988 40.7371 165.953 34.3133C152.785 22.2751 139.516 14.7826 125.389 11.3986C114.668 8.82825 103.423 8.77155 92.8682 9.09133C69.8505 9.79565 48.3489 12.3296 28.9558 16.5879C25.3272 17.3974 21.8155 18.3082 19.2472 20.6357C15.6952 23.8416 14.3768 29.7069 15.7194 36.3291C18.2836 48.7882 27.5648 58.7013 36.8541 67.7887C42.4624 73.2694 48.0304 78.5073 54.4611 82.3041C58.7308 84.8259 63.452 86.7567 68.016 88.5985C70.8826 89.7602 73.846 90.9665 76.7006 92.3144C82.3451 94.9859 87.6913 98.3092 92.8722 101.519C96.8718 104 101.008 106.567 105.218 108.805C110.906 111.809 116.97 114.33 122.833 116.771C125.909 118.05 129.09 119.374 132.178 120.754C138.524 123.562 144.715 126.709 150.725 130.182C153.353 131.696 156.002 133.307 158.599 134.97C163.945 138.391 169.573 141.548 174.468 139.378C177.46 138.055 179.121 135.128 180.879 132.027C181.56 130.813 182.266 129.599 183.056 128.433C184.778 125.969 186.872 123.788 189.261 121.969V121.969Z" fill="white"/>
<path opacity="0.6" d="M205.885 167.534C205.239 168.033 204.545 168.464 203.812 168.822C196.857 172.198 189.003 167.7 182.19 163.219C171.631 156.278 160.572 150.137 149.105 144.846C145.291 143.09 141.364 141.398 137.566 139.758C130.054 136.52 122.285 133.169 114.987 129.145C109.714 126.231 104.569 122.899 99.594 119.677C93.0584 115.447 86.289 111.067 79.193 107.615C75.5361 105.834 71.6978 104.259 67.9885 102.733C62.2835 100.385 56.3608 97.9566 50.9541 94.7184C42.3543 89.5736 34.9559 82.3402 28.4325 75.9568C15.7887 63.5867 4.15684 51.1842 0.749953 35.4787C-1.17725 26.6059 0.657284 18.7167 5.6527 14.3734C9.16038 11.3213 13.8494 10.2244 18.7561 9.28124C45.2526 4.18006 72.1027 1.14591 99.0658 0.206024C112.435 -0.255426 126.664 -0.198749 140.138 3.24999C173.489 11.7949 198.015 39.3929 218.387 64.5865C220.75 67.509 222.911 71.152 225.004 74.6736C228.189 80.0329 231.479 85.5703 235.692 89.1041C238.349 91.3344 240.953 92.8483 243.473 94.3136C248.993 97.5235 253.762 100.296 256.218 109.169L256.274 109.375C257.662 114.479 257.031 119.923 254.514 124.57C251.997 129.218 247.788 132.709 242.768 134.314C228.886 138.767 220.061 144.838 215.005 153.375C214.178 154.772 213.416 156.29 212.678 157.763C210.852 161.402 208.977 165.15 205.885 167.534ZM6.67276 14.3167C6.45908 14.4786 6.2494 14.6527 6.04378 14.8308C1.2056 19.0243 -0.544181 26.6949 1.33464 35.3491C4.70524 50.8967 16.2765 63.2264 28.8518 75.5277C35.3511 81.8908 42.7212 89.1 51.2646 94.2043C56.6309 97.4142 62.5255 99.8348 68.2224 102.179C71.9438 103.705 75.7861 105.283 79.4591 107.072C86.5995 110.541 93.3729 114.929 99.9287 119.171C104.896 122.389 110.032 125.717 115.286 128.615C122.543 132.626 130.304 135.97 137.804 139.204C141.601 140.823 145.532 142.539 149.355 144.3C160.848 149.604 171.932 155.759 182.516 162.714C189.197 167.105 196.878 171.517 203.55 168.279C207.759 166.255 210.001 161.803 212.142 157.492C212.884 156.01 213.65 154.48 214.489 153.068C219.625 144.405 228.556 138.261 242.586 133.739C247.459 132.181 251.544 128.792 253.987 124.282C256.431 119.771 257.043 114.487 255.698 109.533L255.641 109.331C253.25 100.693 248.582 97.9971 243.175 94.8358C240.631 93.3583 238.006 91.8283 235.309 89.5736C231.019 85.9751 227.701 80.3891 224.492 75.0015C222.314 71.3585 220.258 67.8733 217.92 64.9872C197.611 39.8665 173.167 12.3657 139.989 3.86526C126.587 0.42867 112.411 0.380059 99.086 0.841509C72.1485 1.77651 45.3238 4.80661 18.8529 9.90457C14.3372 10.7425 9.99498 11.7382 6.67276 14.3167V14.3167Z" fill="white"/>
</g>
</g>
<defs>
<clipPath id="clip0">
<rect width="257" height="170" fill="white"/>
</clipPath>
</defs>
</svg>
