<svg width="179" height="24" viewBox="0 0 179 24" fill="none" xmlns="http://www.w3.org/2000/svg">
<path d="M15.8197 2.83083H11.8662V0H10.598C7.78722 0 5.09158 1.11516 3.10408 3.10015C1.11657 5.08515 0 7.77738 0 10.5846C0 13.3918 1.11657 16.084 3.10408 18.069C5.09158 20.054 7.78722 21.1692 10.598 21.1692H11.9146V24H15.8197C18.6305 24 21.3261 22.8848 23.3136 20.8998C25.3011 18.9149 26.4177 16.2226 26.4177 13.4154C26.4177 10.6082 25.3011 7.91598 23.3136 5.93099C21.3261 3.94599 18.6305 2.83083 15.8197 2.83083ZM15.8197 19.4341H11.9146V16.6033H10.598C8.9997 16.6033 7.46688 15.9692 6.33672 14.8405C5.20656 13.7117 4.57164 12.1808 4.57164 10.5846C4.57164 8.98832 5.20656 7.45743 6.33672 6.3287C7.46688 5.19998 8.9997 4.56586 10.598 4.56586H11.8662V7.3967H15.8197C17.418 7.3967 18.9508 8.03081 20.081 9.15954C21.2111 10.2883 21.8461 11.8192 21.8461 13.4154C21.8461 15.0117 21.2111 16.5426 20.081 17.6713C18.9508 18.8 17.418 19.4341 15.8197 19.4341Z" fill="white"/>
<path d="M15.8197 19.4342H11.9146V16.6033H10.598C8.99971 16.6033 7.46689 15.9692 6.33673 14.8405C5.20657 13.7118 4.57166 12.1809 4.57166 10.5846C4.57166 8.98834 5.20657 7.45746 6.33673 6.32873C7.46689 5.2 8.99971 4.56589 10.598 4.56589H11.8662V7.39672H15.8197C17.418 7.39672 18.9508 8.03084 20.081 9.15956C21.2111 10.2883 21.8461 11.8192 21.8461 13.4154C21.8461 15.0117 21.2111 16.5426 20.081 17.6713C18.9508 18.8 17.418 19.4342 15.8197 19.4342Z" fill="url(#paint0_linear)"/>
<path d="M48.3122 12.1799C47.4966 11.4494 46.2129 10.9225 44.4611 10.5992L42.2402 10.1956C41.4246 10.0403 40.8455 9.82117 40.5029 9.53808C40.1604 9.255 39.9903 8.83068 39.9928 8.26512C39.993 8.05253 40.0395 7.84253 40.129 7.64964C40.2344 7.43457 40.3994 7.25423 40.6044 7.13005C40.8807 6.96106 41.1832 6.83916 41.4996 6.76934C41.9659 6.66647 42.4429 6.61957 42.9204 6.62963C43.8866 6.62963 44.6077 6.81226 45.0837 7.17753C45.5598 7.5428 45.8807 8.14397 46.0465 8.98105L49.2412 8.59934C49.1665 8.00752 49.0102 7.42886 48.7767 6.87984C48.5357 6.31874 48.1672 5.82134 47.7005 5.42698C47.2166 5.00996 46.5823 4.67513 45.7978 4.42249C45.0133 4.16985 44.0313 4.04261 42.8519 4.04078C41.9976 4.03299 41.1456 4.12897 40.3146 4.32661C39.6098 4.49066 38.9388 4.77553 38.3314 5.16855C37.7963 5.51845 37.3532 5.99167 37.0395 6.54836C36.7219 7.1333 36.5621 7.79071 36.5759 8.45597C36.5759 9.17738 36.6893 9.79986 36.916 10.3234C37.1349 10.8378 37.4727 11.2931 37.9017 11.6521C38.3775 12.0382 38.9184 12.3366 39.499 12.5333C40.2133 12.7787 40.9475 12.962 41.6934 13.0812L43.7964 13.4419C44.6424 13.5971 45.2239 13.8483 45.5409 14.1953C45.8579 14.5423 46.0167 14.9136 46.0173 15.3093C46.0197 15.5782 45.9697 15.8449 45.8701 16.0947C45.7659 16.3426 45.5977 16.5584 45.3827 16.7202C45.1175 16.9162 44.8175 17.0603 44.4986 17.1448C44.0626 17.2599 43.6126 17.3134 43.1618 17.3037C42.0591 17.3037 41.2247 17.0906 40.6584 16.6645C40.0921 16.2383 39.7736 15.5605 39.7029 14.6308H36.2815C36.3723 16.4134 37.0029 17.7466 38.1732 18.6305C39.3436 19.5145 41.0317 19.9583 43.2377 19.962C44.2947 19.962 45.216 19.8451 46.0017 19.6113C46.7874 19.3775 47.4406 19.0521 47.9611 18.6351C48.4613 18.2451 48.8646 17.7451 49.1397 17.174C49.4076 16.5995 49.5431 15.9723 49.5365 15.3386C49.5365 13.9615 49.1284 12.9086 48.3122 12.1799Z" fill="white"/>
<path d="M52.9799 7.14009H57.8514V19.5748H61.25V7.14009H66.1215V4.42432H52.9799V7.14009Z" fill="white"/>
<path d="M73.2129 4.42432L67.1409 19.5748H70.6299L71.9219 16.0737H77.5862L78.8772 19.5748H82.5025L76.4304 4.42432H73.2129ZM72.7823 13.4647L74.7307 8.03226L76.702 13.4647H72.7823Z" fill="white"/>
<path d="M83.5221 7.14009H88.3936V19.5748H91.7922V7.14009H96.6637V4.42432H83.5221V7.14009Z" fill="white"/>
<path d="M104.639 4.42432H101.263V19.5757H104.639V4.42432Z" fill="white"/>
<path d="M123.297 6.18586C122.623 5.48118 121.798 4.93718 120.884 4.5942C119.932 4.22893 118.852 4.0463 117.644 4.0463C116.451 4.0463 115.379 4.22893 114.427 4.5942C113.508 4.94051 112.677 5.48383 111.992 6.18586C111.305 6.90119 110.779 7.75492 110.45 8.68978C110.095 9.66383 109.918 10.7672 109.918 12C109.918 13.2328 110.095 14.3362 110.45 15.3103C110.778 16.2429 111.3 17.0961 111.98 17.8142C112.66 18.5174 113.488 19.0611 114.404 19.4059C115.355 19.7711 116.434 19.9538 117.643 19.9538C118.867 19.9538 119.954 19.7711 120.906 19.4059C121.82 19.0627 122.645 18.5187 123.319 17.8142C123.991 17.0958 124.501 16.242 124.814 15.3103C125.154 14.3362 125.324 13.2328 125.324 12C125.324 10.7672 125.151 9.66383 124.803 8.68978C124.483 7.7589 123.97 6.90579 123.297 6.18586ZM120.794 15.8828C120.099 16.7887 119.041 17.2413 117.621 17.2407C116.201 17.2401 115.144 16.7875 114.449 15.8828C113.754 14.9782 113.407 13.6839 113.407 12C113.407 10.3307 113.754 9.03983 114.449 8.12726C115.144 7.2147 116.202 6.75811 117.621 6.7575C119.041 6.7575 120.099 7.21409 120.794 8.12726C121.489 9.04044 121.836 10.3314 121.836 12C121.836 13.6833 121.489 14.9776 120.794 15.8828Z" fill="white"/>
<path d="M140.301 14.3551L133.64 4.42432H130.604V19.5748H133.89V9.72893L140.573 19.5748H143.586V4.42432H140.301V14.3551Z" fill="white"/>
<path d="M154.485 4.50928C153.632 4.49647 152.785 4.65162 151.992 4.96586C151.253 5.27007 150.602 5.75564 150.101 6.37763C149.58 7.01442 149.179 7.81709 148.899 8.78567C148.62 9.75424 148.48 10.9036 148.481 12.2338C148.481 14.8936 148.999 16.8459 150.035 18.0909C151.071 19.3359 152.524 19.9596 154.394 19.962C156.297 19.962 157.773 19.3395 158.823 18.0945C159.874 16.8496 160.397 14.8957 160.394 12.2329C160.394 9.58834 159.876 7.64024 158.84 6.38859C157.804 5.13693 156.352 4.5105 154.485 4.50928ZM151.925 10.0796C151.995 9.52388 152.143 8.98089 152.366 8.46697C152.539 8.06279 152.817 7.71216 153.171 7.45152C153.504 7.21836 153.919 7.10177 154.417 7.10177C154.561 7.10168 154.704 7.11267 154.846 7.13465L151.965 14.6409C151.951 14.5597 151.938 14.4756 151.926 14.3907C151.829 13.6768 151.784 12.9569 151.789 12.2365C151.783 11.5153 151.828 10.7945 151.925 10.0796ZM156.954 14.3871C156.882 14.9443 156.728 15.4879 156.496 15.9997C156.318 16.4062 156.034 16.7578 155.674 17.0179C155.3 17.2614 154.861 17.3838 154.415 17.3686C154.172 17.371 153.929 17.3374 153.695 17.269L156.78 9.23312C156.855 9.51146 156.913 9.79417 156.954 10.0796C157.049 10.7933 157.095 11.5128 157.089 12.2329C157.095 12.9547 157.05 13.6761 156.955 14.3916L156.954 14.3871Z" fill="white"/>
<path d="M173.2 11.6813L178.365 4.42432H174.74L171.342 9.2623L168.011 4.42432H164.16L169.416 11.5964L163.774 19.5748H167.468L171.228 14.0583L175.148 19.5748H179L173.2 11.6813Z" fill="white"/>
<defs>
<linearGradient id="paint0_linear" x1="4.57074" y1="12" x2="21.8461" y2="12" gradientUnits="userSpaceOnUse">
<stop stop-color="#151515"/>
<stop offset="0.4" stop-color="#151515"/>
<stop offset="0.42" stop-color="#161616"/>
<stop offset="1" stop-color="#383838"/>
</linearGradient>
</defs>
</svg>
