<?xml version="1.0" encoding="utf-8"?>
<!-- Generator: Adobe Illustrator 26.5.0, SVG Export Plug-In . SVG Version: 6.00 Build 0)  -->
<svg version="1.1" id="Layer_1" xmlns="http://www.w3.org/2000/svg" xmlns:xlink="http://www.w3.org/1999/xlink" x="0px" y="0px"
	 viewBox="0 0 48 48" style="enable-background:new 0 0 48 48;" xml:space="preserve">
<style type="text/css">
	.st0{fill:#161616;}
	.st1{fill:#FFFFFF;}
</style>
<g>
	<path class="st0" d="M9.6,0h28.8C43.7,0,48,4.3,48,9.6v28.8c0,5.3-4.3,9.6-9.6,9.6H9.6C4.3,48,0,43.7,0,38.4V9.6C0,4.3,4.3,0,9.6,0
		z"/>
	<g>
		<path class="st1" d="M25,9.6H23V6.7c-8.8,0-15.9,7.1-15.9,15.8c0,8.7,7.1,15.8,15.9,15.8v2.9H25c8.8,0,15.9-7.1,15.9-15.8
			S33.7,9.6,25,9.6z M25,32.9H23V30c-4.1,0-7.5-3.3-7.5-7.4c0-4.1,3.4-7.4,7.5-7.4V18H25c4.1,0,7.5,3.3,7.5,7.4S29.1,32.9,25,32.9z"
			/>
	</g>
</g>
</svg>
