<svg width="127" height="42" viewBox="0 0 127 42" fill="none" xmlns="http://www.w3.org/2000/svg">
<g clip-path="url(#clip0_32_75)">
<g clip-path="url(#clip1_32_75)">
<path d="M21.7574 3.52903H19.428V0C8.7097 0 0 8.66218 0 19.3168C0 29.9715 8.7097 38.6336 19.428 38.6336V42.1796H21.7574C32.4588 42.1796 41.1685 33.5005 41.1685 22.8459C41.1685 12.1912 32.4588 3.52903 21.7574 3.52903ZM21.7574 31.9302H19.428V28.4011C14.3811 28.4011 10.2795 24.3149 10.2795 19.2999C10.2795 14.285 14.3811 10.2156 19.428 10.2156V13.7447H21.7574C26.7874 13.7447 30.8891 17.8309 30.8891 22.8459C30.8891 27.8608 26.7874 31.9302 21.7574 31.9302Z" fill="#01E898"/>
<path d="M60.3804 13.0777C60.3804 12.8212 60.5916 11.2673 58.5255 11.3126C57.877 11.3126 57.0928 11.2523 56.9118 12.0971C56.8515 12.5044 57.1531 12.7005 57.4397 12.8967C57.9826 13.1984 58.5556 13.3794 59.1287 13.5303C60.0788 13.7868 63.3815 14.526 63.2458 16.6079C63.1101 18.4937 61.1948 19.2933 58.3747 19.2782C55.7355 19.248 53.3376 18.2825 53.3376 15.7932H56.3538C56.2332 17.5433 57.9976 17.5583 58.3143 17.5583C60.4106 17.5583 59.8375 16.1855 59.37 15.9139C57.2436 14.5863 53.6694 15.2803 53.4885 12.1876C53.5488 11.6596 53.6694 11.1919 54.152 10.7092C55.5244 9.39664 57.9826 9.54751 58.3294 9.54751C63.3664 9.54751 63.3664 12.5044 63.4268 13.0777H60.3653H60.3804Z" fill="#01E898"/>
<path d="M64.3015 9.75873H73.6215V11.9915H70.4092V19.0821H67.5137V11.9915H64.2864V9.75873H64.3015Z" fill="#01E898"/>
<path d="M78.8243 9.75873H81.931L87.2244 19.0821H83.786L82.9263 17.4678H77.8592L76.9845 19.0821H73.546L78.8394 9.75873H78.8243ZM81.9461 15.6424L80.3928 12.7458L78.8545 15.6424H81.9762H81.9461Z" fill="#01E898"/>
<path d="M87.134 9.75873H96.454V11.9915H93.2417V19.0821H90.3462V11.9915H87.1189V9.75873H87.134Z" fill="#01E898"/>
<path d="M100.873 19.0821H97.9772V9.75873H100.873V19.0821Z" fill="#01E898"/>
<path d="M107.78 9.54749C110.781 9.54749 113.194 11.1919 113.194 14.4053C113.194 17.6187 110.781 19.2782 107.78 19.2782C104.779 19.2782 102.381 17.6187 102.381 14.4053C102.381 11.1768 104.809 9.54749 107.78 9.54749ZM107.78 17.0303C109.167 17.0303 110.298 16.1402 110.298 14.4204C110.298 12.7005 109.167 11.8104 107.78 11.8104C106.392 11.8104 105.291 12.6854 105.291 14.4204C105.291 16.1553 106.407 17.0303 107.78 17.0303Z" fill="#01E898"/>
<path d="M117.567 9.75873L123.75 16.4721V9.75873H126.646V19.0821H123.75L117.567 12.776V19.0821H114.687V9.75873H117.567Z" fill="#01E898"/>
<path d="M62.8537 23.095V25.3278L57.4849 30.1856H62.8537V32.4184H53.3376V30.1856L58.8422 25.3278H53.3376V23.095H62.8537V23.095Z" fill="#01E898"/>
<path d="M73.7421 23.095V25.3278H67.1216V26.8364H71.6911V28.677H67.1216V30.1856H73.7421V32.4184H64.2261V23.095H73.7421Z" fill="#01E898"/>
<path d="M75.2502 23.095H82.1422C83.6956 23.095 84.9473 24.3321 84.9473 25.9011C84.9473 26.8364 84.4948 27.6662 83.771 28.1791C84.5099 28.5412 84.9925 29.3106 84.9925 30.2309V32.4335H82.0216V30.5024C82.0216 29.5369 81.9462 28.9938 80.8151 28.9636H78.1458V32.4486H75.2502V23.1252V23.095ZM81.2675 27.0175C81.7803 27.0175 82.2025 26.4744 82.2025 25.9463C82.2025 25.4183 81.7803 24.8752 81.2675 24.8752H78.1458V27.0024H81.2675V27.0175Z" fill="#01E898"/>
<path d="M91.3868 22.8838C94.3879 22.8838 96.8008 24.5282 96.8008 27.7416C96.8008 30.955 94.3879 32.6145 91.3868 32.6145C88.3857 32.6145 85.9878 30.955 85.9878 27.7416C85.9878 24.5131 88.4158 22.8838 91.3868 22.8838V22.8838ZM91.3868 30.3666C92.7742 30.3666 93.9053 29.4765 93.9053 27.7567C93.9053 26.0368 92.7742 25.1467 91.3868 25.1467C89.9993 25.1467 88.8984 26.0217 88.8984 27.7567C88.8984 29.4916 90.0144 30.3666 91.3868 30.3666Z" fill="#01E898"/>
<path d="M98.2938 26.3688H103.376V28.4205H98.2938V26.3688V26.3688Z" fill="#01E898"/>
<path d="M108.443 23.095L110.826 25.7653L113.194 23.095H116.753L112.636 27.802L116.753 32.4335H113.058L110.796 29.8688L108.564 32.4335H104.869L109.001 27.802L104.869 23.095H108.443V23.095Z" fill="#01E898"/>
</g>
</g>
<defs>
<clipPath id="clip0_32_75">
<rect width="127" height="42" fill="white"/>
</clipPath>
<clipPath id="clip1_32_75">
<rect width="131" height="42.1796" fill="white"/>
</clipPath>
</defs>
</svg>
