<svg width="1440" height="709" viewBox="0 0 1440 709" fill="none" xmlns="http://www.w3.org/2000/svg">
<g opacity="0.6">
<path d="M-0.0771484 316.68C-0.0771484 316.68 62.1262 524.175 312.016 456.932C561.906 389.688 696.463 173.95 923.286 237.352C1150.11 300.753 1164.05 411.744 1250.07 316.68C1334.64 223.23 1017.48 -120.674 1441.6 45.7835" stroke="#304AED" stroke-miterlimit="10"/>
<path d="M-0.0771484 335.316C-0.0771484 335.316 65.7016 532.975 312.055 465.212C382.274 445.904 443.728 414.779 500.856 381.215C642.89 297.91 757.205 200.022 915.885 240.157C1136.58 295.969 1153.57 399.505 1240.15 309.322C1254.28 294.605 1257.58 273.644 1256.33 249.455C1250.12 129.012 1096.88 -69.7991 1441.6 59.0978" stroke="#3448EB" stroke-miterlimit="10"/>
<path d="M-0.0771484 353.952C-0.0771484 353.952 69.2769 541.774 312.074 473.474C381.274 454.031 442.267 423.06 499.203 389.361C639.526 306.459 753.226 208.014 908.466 242.942C1122.99 291.204 1143.11 387.286 1230.23 302.098C1244.55 288.111 1248.09 268.361 1248.41 245.709C1250.03 134.142 1106.3 -46.3214 1441.6 72.5657" stroke="#3746E9" stroke-miterlimit="10"/>
<path d="M-0.0771484 372.589C-0.0771484 372.589 72.8523 550.497 312.112 481.754C380.256 462.177 440.806 431.341 497.55 397.507C636.354 315.028 749.189 216.045 901.065 245.728C1109.34 286.478 1132.71 375.067 1220.33 294.778C1234.82 281.502 1238.57 262.924 1240.49 241.847C1249.89 138.676 1115.72 -22.7861 1441.6 85.9184" stroke="#3B44E6" stroke-miterlimit="10"/>
<path d="M-0.0771484 391.225C-0.0771484 391.225 76.4469 559.354 312.151 490.035C379.256 470.304 439.345 439.621 495.878 405.653C633.067 323.597 745.114 224.076 893.664 248.552C1095.65 281.809 1122.41 362.867 1210.41 287.515C1225.1 274.95 1229.07 257.429 1232.57 238.043C1249.87 142.576 1125.14 0.691648 1441.6 99.3288" stroke="#3E42E4" stroke-miterlimit="10"/>
<path d="M-0.0771484 409.861C-0.0771484 409.861 80.0221 568.134 312.189 498.239C378.237 478.392 437.884 447.844 494.225 413.703C629.8 332.069 740.981 232.049 886.36 251.242C1081.99 277.102 1112.11 350.571 1200.59 280.061C1215.47 268.207 1219.81 251.646 1224.75 234.047C1249.93 145.708 1134.6 24.1693 1441.6 112.72" stroke="#4240E2" stroke-miterlimit="10"/>
<path d="M-0.0771484 428.497C-0.0771484 428.497 83.5975 576.933 312.208 506.577C377.238 486.577 436.423 456.182 492.572 421.926C626.532 340.734 736.81 240.253 878.94 254.143C1068.15 272.645 1101.8 338.486 1190.67 272.914C1205.74 261.79 1213.41 247.035 1216.81 230.377C1265.42 155.814 1144.03 47.6471 1441.71 126.092" stroke="#453EE0" stroke-miterlimit="10"/>
<path d="M-0.0771484 447.133C-0.0771484 447.133 87.1729 585.732 312.247 514.838C376.238 494.723 434.962 464.463 491.014 430.072C623.341 349.38 732.677 248.399 871.616 256.929C1054.36 268.168 1091.64 326.344 1180.85 265.632C1194.63 256.412 1204.62 242.529 1208.99 226.535C1268.06 161.212 1153.55 71.1248 1441.77 139.483" stroke="#493CDE" stroke-miterlimit="10"/>
<path d="M-0.0771484 465.769C-0.0771484 465.769 90.7483 594.493 312.285 523.119C375.219 502.849 432.867 471.706 489.246 438.219C620.573 360.254 730.236 253.548 864.081 259.734C1040.16 267.88 1081.29 314.221 1170.79 258.332C1184.49 250.099 1195.08 237.578 1200.93 222.712C1270.46 166.534 1162.83 94.6025 1441.63 152.874" stroke="#4C3ADB" stroke-miterlimit="10"/>
<path d="M-0.0771484 484.405C-0.0771484 484.405 94.3428 603.312 312.324 531.38C374.22 510.996 431.368 479.91 487.593 446.365C616.863 369.265 724.604 262.866 856.661 262.52C1026.34 262.097 1071.11 302.117 1160.87 250.992C1174.49 243.627 1185.65 232.449 1192.99 218.831C1272.98 171.856 1172.23 118.042 1441.62 166.208" stroke="#5038D9" stroke-miterlimit="10"/>
<path d="M-0.0771484 503.042C-0.0771484 503.042 97.9566 612.111 312.343 539.661C373.201 519.122 430.58 489.305 485.94 454.511C613.422 375.009 719.664 273.241 849.242 265.325C1012.27 255.373 1060.96 290.052 1151.03 243.749C1166.99 235.526 1177.64 225.709 1185.15 215.046C1275.5 177.274 1181.73 141.558 1441.69 179.637" stroke="#5336D7" stroke-miterlimit="10"/>
<path d="M-0.0771484 521.678C-0.0771484 521.678 101.494 620.891 312.382 547.922C372.201 527.269 429.119 497.585 484.287 462.657C610.154 383.578 715.3 281.675 841.822 268.13C998.195 251.358 1050.83 278.044 1141 236.449C1154.59 230.499 1166.86 221.918 1177.12 211.203C1278 182.634 1191.01 165.093 1441.58 193.028" stroke="#5733D5" stroke-miterlimit="10"/>
<path d="M-0.0771484 540.314C-0.0771484 540.314 105.069 629.691 312.42 556.203C371.183 535.396 427.754 505.847 482.634 470.803C606.867 392.147 710.918 290.205 834.402 270.993C984.125 247.573 1040.73 266.151 1131.1 229.225C1144.79 223.835 1157.63 216.476 1169.2 207.38C1280.53 187.995 1200.43 188.494 1441.58 206.4" stroke="#5A31D3" stroke-miterlimit="10"/>
<path d="M-0.0771484 558.95C-0.0771484 558.95 108.644 638.471 312.458 564.464C370.125 543.542 426.197 514.127 480.961 478.93C603.6 400.716 706.554 298.928 826.963 273.721C970.035 243.769 1030.72 254.163 1121.06 221.847C1134.97 217.003 1148.39 210.873 1161.16 203.538C1282.95 193.355 1209.74 211.972 1441.46 219.791" stroke="#5E2FD1" stroke-miterlimit="10"/>
<path d="M-0.0771484 577.586C-0.0771484 577.586 112.239 647.27 312.478 572.745C369.164 551.611 424.736 522.408 479.308 487.076C600.409 409.285 702.287 307.746 819.543 276.507C956.022 240.214 1020.57 242.308 1111.2 214.566C1128.1 209.397 1141.67 204.383 1153.32 199.714C1282.61 208.456 1219.21 235.45 1441.52 233.182" stroke="#612DCE" stroke-miterlimit="10"/>
<path d="M-0.0771484 596.222C-0.0771484 596.222 115.814 656.166 312.516 581.006C368.165 559.872 423.275 530.689 477.655 495.222C597.045 417.834 697.904 316.699 812.123 279.312C942.008 236.814 1010.5 230.512 1101.28 207.265C1118.41 202.884 1132.6 193.163 1145.38 195.872C1285.2 225.517 1228.61 258.927 1441.4 246.554" stroke="#652BCC" stroke-miterlimit="10"/>
<path d="M-0.0771484 614.859C-0.0771484 614.859 119.389 664.811 312.555 589.287C367.146 567.942 421.814 538.969 475.944 503.368C593.719 426.403 693.637 325.806 804.646 282.098C928.072 233.567 1000.41 218.696 1091.31 199.964C1108.61 196.371 1123.99 188.898 1137.44 192.048C1287.49 227.265 1238.01 282.347 1441.48 259.946" stroke="#6829CA" stroke-miterlimit="10"/>
<path d="M-0.0771484 633.495C-0.0771484 633.495 122.946 673.649 312.593 597.548C366.146 576.088 420.353 547.25 474.349 511.514C590.509 434.972 689.639 335.047 797.399 284.903C914.482 230.454 990.487 207.073 1081.54 192.682C1099.17 189.897 1115.36 184.594 1129.6 188.206C1290.28 228.86 1249.05 296.699 1441.56 273.337" stroke="#6C27C8" stroke-miterlimit="10"/>
<path d="M-0.0771484 652.131C-0.0771484 652.131 126.54 682.448 312.612 605.829C368.674 582.48 422.29 553.649 472.676 519.757C587.222 443.637 685.64 344.5 789.998 287.784C900.873 227.534 980.415 195.564 1071.64 185.478C1089.5 183.556 1106.05 182.212 1121.62 184.479C1297.51 209.858 1256.85 329.437 1441.5 286.824" stroke="#6F25C6" stroke-miterlimit="10"/>
<path d="M-0.0771484 670.767C-0.0771484 670.767 130.135 691.228 312.651 614.09C368.086 590.461 421.121 561.56 471.023 527.787C583.954 452.109 681.854 353.895 782.598 290.493C887.456 224.498 970.304 183.825 1061.73 178.081C1079.81 176.947 1097.11 177.12 1113.8 180.54C1299.81 218.811 1266.37 352.819 1441.6 300.1" stroke="#7323C3" stroke-miterlimit="10"/>
<path d="M-0.0771484 689.403C-0.0771484 689.403 133.71 700.028 312.689 622.371C367.485 598.47 419.939 569.527 469.37 535.914C580.687 460.659 678.259 363.424 775.197 293.279C874.211 221.597 960.154 172.24 1051.81 170.78C1070.02 170.283 1088.21 172.274 1105.88 176.698C1301.72 227.649 1275.78 376.277 1441.6 313.472" stroke="#7621C1" stroke-miterlimit="10"/>
<path d="M-0.0771484 708.039C-0.0771484 708.039 225.516 709.307 467.717 544.08C709.918 378.852 892.53 109.473 1097.96 172.874C1303.39 236.276 1285.2 399.774 1441.6 326.882" stroke="#7A1FBF" stroke-miterlimit="10"/>
</g>
</svg>
